<mxfile host="65bd71144e">
    <diagram id="9E7BLgIsYTPLrVG02yzc" name="Page-1">
        <mxGraphModel dx="857" dy="1254" grid="0" gridSize="10" guides="1" tooltips="1" connect="1" arrows="1" fold="1" page="0" pageScale="1" pageWidth="850" pageHeight="1100" math="0" shadow="0">
            <root>
                <mxCell id="0"/>
                <mxCell id="1" parent="0"/>
                <mxCell id="2" value="Domain" style="swimlane;whiteSpace=wrap;html=1;fillColor=#60a917;fontColor=#ffffff;strokeColor=#2D7600;" parent="1" vertex="1">
                    <mxGeometry x="120" y="104" width="377" height="362" as="geometry"/>
                </mxCell>
                <mxCell id="3" value="Entity" style="whiteSpace=wrap;html=1;" parent="2" vertex="1">
                    <mxGeometry x="40" y="70" width="120" height="60" as="geometry"/>
                </mxCell>
                <mxCell id="5" style="edgeStyle=none;html=1;entryX=1;entryY=0.5;entryDx=0;entryDy=0;" parent="2" source="4" target="3" edge="1">
                    <mxGeometry relative="1" as="geometry"/>
                </mxCell>
                <mxCell id="4" value="I - UseCase" style="whiteSpace=wrap;html=1;" parent="2" vertex="1">
                    <mxGeometry x="219" y="70" width="120" height="60" as="geometry"/>
                </mxCell>
                <mxCell id="6" value="Enum" style="whiteSpace=wrap;html=1;" parent="2" vertex="1">
                    <mxGeometry x="40" y="182" width="120" height="60" as="geometry"/>
                </mxCell>
                <mxCell id="8" value="Data" style="swimlane;whiteSpace=wrap;html=1;fillColor=#1ba1e2;fontColor=#ffffff;strokeColor=#006EAF;" parent="1" vertex="1">
                    <mxGeometry x="604" y="104" width="366" height="360" as="geometry"/>
                </mxCell>
                <mxCell id="12" style="edgeStyle=none;html=1;entryX=0.5;entryY=0;entryDx=0;entryDy=0;" parent="8" source="9" target="11" edge="1">
                    <mxGeometry relative="1" as="geometry"/>
                </mxCell>
                <mxCell id="9" value="UseCaseImpl" style="whiteSpace=wrap;html=1;" parent="8" vertex="1">
                    <mxGeometry x="27" y="70" width="120" height="60" as="geometry"/>
                </mxCell>
                <mxCell id="11" value="IRepository" style="whiteSpace=wrap;html=1;" parent="8" vertex="1">
                    <mxGeometry x="27" y="192" width="120" height="60" as="geometry"/>
                </mxCell>
                <mxCell id="14" style="edgeStyle=none;html=1;" parent="8" source="13" target="9" edge="1">
                    <mxGeometry relative="1" as="geometry"/>
                </mxCell>
                <mxCell id="13" value="UseCaseFactory" style="whiteSpace=wrap;html=1;" parent="8" vertex="1">
                    <mxGeometry x="216" y="70" width="120" height="60" as="geometry"/>
                </mxCell>
                <mxCell id="10" style="edgeStyle=none;html=1;" parent="1" source="9" target="4" edge="1">
                    <mxGeometry relative="1" as="geometry"/>
                </mxCell>
                <mxCell id="15" value="Infra" style="swimlane;whiteSpace=wrap;html=1;fillColor=#e51400;fontColor=#ffffff;strokeColor=#B20000;" parent="1" vertex="1">
                    <mxGeometry x="1040" y="104" width="394" height="360" as="geometry"/>
                </mxCell>
                <mxCell id="19" style="edgeStyle=none;html=1;" parent="15" source="16" target="18" edge="1">
                    <mxGeometry relative="1" as="geometry"/>
                </mxCell>
                <mxCell id="16" value="RepositoryImpl" style="whiteSpace=wrap;html=1;" parent="15" vertex="1">
                    <mxGeometry x="30" y="192" width="120" height="60" as="geometry"/>
                </mxCell>
                <mxCell id="18" value="Infra Entities" style="whiteSpace=wrap;html=1;" parent="15" vertex="1">
                    <mxGeometry x="242" y="192" width="120" height="60" as="geometry"/>
                </mxCell>
                <mxCell id="17" style="edgeStyle=none;html=1;" parent="1" source="16" target="11" edge="1">
                    <mxGeometry relative="1" as="geometry"/>
                </mxCell>
                <mxCell id="20" value="Controller" style="swimlane;whiteSpace=wrap;html=1;fillColor=#d80073;fontColor=#ffffff;strokeColor=#A50040;" parent="1" vertex="1">
                    <mxGeometry x="619" y="-439" width="336" height="308" as="geometry"/>
                </mxCell>
                <mxCell id="21" value="Controller" style="whiteSpace=wrap;html=1;" parent="20" vertex="1">
                    <mxGeometry x="108" y="124" width="120" height="60" as="geometry"/>
                </mxCell>
                <mxCell id="22" style="edgeStyle=none;html=1;entryX=0.5;entryY=0;entryDx=0;entryDy=0;" parent="1" source="21" target="13" edge="1">
                    <mxGeometry relative="1" as="geometry"/>
                </mxCell>
                <mxCell id="23" style="edgeStyle=none;html=1;entryX=0.5;entryY=0;entryDx=0;entryDy=0;" parent="1" source="21" target="16" edge="1">
                    <mxGeometry relative="1" as="geometry"/>
                </mxCell>
                <mxCell id="24" value="Web" style="swimlane;whiteSpace=wrap;html=1;fillColor=#a20025;fontColor=#ffffff;strokeColor=#6F0000;" parent="1" vertex="1">
                    <mxGeometry x="1091" y="-439" width="325" height="306" as="geometry"/>
                </mxCell>
                <mxCell id="25" value="Router" style="whiteSpace=wrap;html=1;" parent="24" vertex="1">
                    <mxGeometry x="102.5" y="124" width="120" height="60" as="geometry"/>
                </mxCell>
                <mxCell id="26" style="edgeStyle=none;html=1;entryX=1;entryY=0.5;entryDx=0;entryDy=0;" parent="1" source="25" target="21" edge="1">
                    <mxGeometry relative="1" as="geometry"/>
                </mxCell>
            </root>
        </mxGraphModel>
    </diagram>
</mxfile>